# xmcd
# 
# Track frame offsets:
#     150
#     19995
#     32908
#     52616
#     69297
#     85676
#     103095
#     125818
#     139427
#     162120
#     184538
#     203252
# 
# Disc length: 3135
# 
# Revision: 2
# Processed by: cddbd v1.5.2PL0 Copyright (c) Steve Scherf et al.
# Submitted via: fre:ac v1.0.17
# 
DISCID=980c3d0c
DTITLE=Eric Clapton - Icon
DYEAR=2011
DGENRE=Blues
TTITLE0=I Shot the Sheriff
TTITLE1=After Midnight
TTITLE2=Knockin' on Heaven's Door
TTITLE3=Wonderful Tonight
TTITLE4=Cocaine
TTITLE5=Lay Down Sally
TTITLE6=Derek and The Dominos - Bell Bottom Blues
TTITLE7=Promises
TTITLE8=Let It Rain
TTITLE9=Let It Grow
TTITLE10=I Can't Stand It
TTITLE11=Derek and The Dominos - Layla
EXTD=
EXTT0=
EXTT1=
EXTT2=
EXTT3=
EXTT4=
EXTT5=
EXTT6=
EXTT7=
EXTT8=
EXTT9=
EXTT10=
EXTT11=
PLAYORDER=
